<svg height="55" viewBox="0 0 240 55" width="240" xmlns="http://www.w3.org/2000/svg"><g fill="#118afa" fill-rule="evenodd" transform="translate(-3 -2)"><path d="m0 5.073a5.08 5.08 0 0 1 10.157 0v30.556a5.08 5.08 0 0 1 -10.157.001zm15.49 20.36a5.084 5.084 0 0 1 5.079-5.082 5.08 5.08 0 0 1 5.078 5.083v10.185a5.084 5.084 0 0 1 -5.078 5.083 5.08 5.08 0 0 1 -5.079-5.083v-10.185zm15.49 10.181c0-2.81 2.28-5.088 5.079-5.088a5.087 5.087 0 0 1 5.078 5.088c0 2.81-2.28 5.088-5.078 5.088a5.087 5.087 0 0 1 -5.079-5.088z" transform="matrix(.70710678 .70710678 -.70710678 .70710678 29.754639 .025946)"/><path d="m239.636 53.542c-2.1 1.727-4.766 2.59-7.998 2.59-2.154 0-4.398-.387-6.732-1.16a19.856 19.856 0 0 1 -6.301-3.426l3.554-5.072c3.016 2.338 6.23 3.507 9.64 3.507 1.042 0 1.868-.206 2.478-.62s.916-.962.916-1.646c0-.683-.422-1.313-1.266-1.888-.844-.576-2.064-1.115-3.662-1.619-1.598-.503-2.819-.935-3.663-1.294-.843-.36-1.804-.882-2.88-1.565-2.191-1.367-3.286-3.39-3.286-6.07s1.077-4.865 3.231-6.555c2.155-1.69 4.937-2.536 8.348-2.536s6.822 1.151 10.233 3.453l-3.016 5.395c-2.513-1.726-5.018-2.59-7.513-2.59s-3.743.684-3.743 2.05c0 .756.395 1.35 1.185 1.781.79.432 2.1.936 3.931 1.511 1.831.576 3.133 1.016 3.905 1.322s1.696.782 2.774 1.43c2.01 1.223 3.016 3.264 3.016 6.123 0 2.86-1.05 5.153-3.151 6.88zm-43.065-14.028v16.186h-8.078v-29.026h8.078v3.237c2.442-2.482 5.189-3.723 8.24-3.723 3.052 0 5.61 1.08 7.675 3.237 2.065 2.158 3.097 5.036 3.097 8.633v17.642h-8.079v-16.4c0-4.46-1.633-6.69-4.9-6.69-1.616 0-3.026.584-4.228 1.753-1.203 1.169-1.805 2.886-1.805 5.152zm-74.009 16.186h-8.079v-29.026h8.079zm-31.974 0h-8.079v-29.026h8.079v3.237c2.441-2.482 5.188-3.723 8.24-3.723s5.61 1.08 7.675 3.237c2.064 2.158 3.096 5.036 3.096 8.633v17.642h-8.078v-16.4c0-4.46-1.634-6.69-4.901-6.69-1.616 0-3.025.584-4.228 1.753s-1.804 2.886-1.804 5.152z"/><path d="m45.246 4.862c0-1.331.458-2.455 1.374-3.372.915-.917 2.037-1.376 3.366-1.376 1.328 0 2.45.459 3.366 1.376.915.917 1.373 2.04 1.373 3.372 0 1.33-.458 2.455-1.373 3.372-.916.917-2.038 1.376-3.366 1.376-1.329 0-2.45-.459-3.366-1.376s-1.374-2.041-1.374-3.372zm-45.005 0c0-1.332.459-2.455 1.373-3.372.916-.917 2.038-1.376 3.366-1.376 1.329 0 2.451.459 3.367 1.376.915.917 1.373 2.04 1.373 3.372 0 1.33-.458 2.455-1.373 3.372-.917.916-2.038 1.376-3.367 1.376-1.328 0-2.45-.459-3.366-1.376-.914-.917-1.373-2.041-1.373-3.372z" transform="translate(68.536 14.744)"/><path d="m77.556 55.7h-8.078v-29.026h8.078zm-19.933-28.756h6.747v5.826h-6.747v22.93h-8.132v-22.93h-3.393v-5.826h3.393v-1.78c0-3.166.96-5.675 2.88-7.527 1.922-1.853 4.31-2.779 7.164-2.779s5.448 1.08 7.782 3.237l-2.908 5.45c-1.185-1.367-2.495-2.05-3.932-2.05-.825 0-1.508.296-2.046.89-.539.593-.808 1.465-.808 2.616zm123.601 24.551c-3.268 3.094-7.1 4.64-11.499 4.64-4.398 0-8.033-1.357-10.906-4.073-2.872-2.716-4.308-6.358-4.308-10.926s1.463-8.2 4.389-10.898 6.382-4.046 10.367-4.046c3.986 0 7.37 1.204 10.152 3.614 2.783 2.41 4.174 5.72 4.174 9.928v4.316h-21.112c.252 1.583 1.078 2.877 2.478 3.884 1.4 1.008 2.98 1.511 4.74 1.511 2.836 0 5.17-.953 7-2.86zm-7.816-17.032c-1.113-.935-2.469-1.403-4.066-1.403-1.598 0-3.061.486-4.39 1.457-1.328.97-2.1 2.284-2.315 3.938h12.71c-.18-1.726-.826-3.057-1.94-3.992z"/><path d="m128.612 33.39v-6.69h23.374v6.313l-14.057 15.97h14.864v6.744h-25.205v-6.69l13.68-15.647z"/></g></svg>